<svg width="278" height="202" viewBox="0 0 278 202" fill="none" xmlns="http://www.w3.org/2000/svg">
<path d="M69.8546 201.859C50.7552 201.859 34.4369 195.248 20.8994 182.025C7.36198 168.803 0.593262 152.642 0.593262 133.542C0.593262 117.172 5.52551 102.585 15.39 89.7819C25.2545 76.9791 38.1623 68.7937 54.1134 65.2257C59.3604 45.9164 69.8546 30.2802 85.5958 18.3168C101.337 6.35353 119.177 0.371868 139.116 0.371868C163.672 0.371868 184.503 8.92459 201.608 26.03C218.714 43.1355 227.267 63.9664 227.267 88.5226C241.749 90.2017 253.764 96.4457 263.314 107.255C272.864 118.064 277.639 130.709 277.639 145.191C277.639 160.932 272.129 174.312 261.11 185.331C250.091 196.35 236.711 201.859 220.97 201.859H69.8546Z" fill="white"/>
</svg>
